<svg width="40" height="40" viewBox="0 0 40 40" fill="none" xmlns="http://www.w3.org/2000/svg">
<path d="M20.0013 6C16.1991 6 15.7219 6.01663 14.2286 6.08458C12.7382 6.15283 11.7208 6.38879 10.8306 6.735C9.90983 7.09258 9.12874 7.57092 8.35057 8.34938C7.57181 9.12754 7.09347 9.90862 6.73472 10.8291C6.38763 11.7196 6.15138 12.7372 6.08429 14.227C6.0175 15.7204 6 16.1978 6 20C6 23.8022 6.01692 24.2779 6.08458 25.7712C6.15313 27.2616 6.38909 28.279 6.73501 29.1691C7.09289 30.0899 7.57122 30.871 8.34969 31.6492C9.12757 32.4279 9.90867 32.9074 10.8289 33.265C11.7196 33.6112 12.7373 33.8472 14.2274 33.9154C15.7208 33.9834 16.1976 34 19.9996 34C23.8021 34 24.2778 33.9834 25.7711 33.9154C27.2616 33.8472 28.2801 33.6112 29.1708 33.265C30.0913 32.9074 30.8713 32.4279 31.6491 31.6492C32.4279 30.871 32.9062 30.0899 33.265 29.1694C33.6092 28.279 33.8454 27.2613 33.9154 25.7715C33.9825 24.2782 34 23.8022 34 20C34 16.1978 33.9825 15.7207 33.9154 14.2273C33.8454 12.7369 33.6092 11.7196 33.265 10.8294C32.9062 9.90862 32.4279 9.12754 31.6491 8.34938C30.8704 7.57063 30.0916 7.09229 29.1699 6.735C28.2774 6.38879 27.2595 6.15283 25.7691 6.08458C24.2757 6.01663 23.8003 6 19.9969 6H20.0013ZM18.7454 8.52292C19.1181 8.52233 19.5341 8.52292 20.0013 8.52292C23.7394 8.52292 24.1824 8.53633 25.6585 8.60342C27.0236 8.66583 27.7644 8.89392 28.2579 9.08554C28.9112 9.33929 29.377 9.64262 29.8667 10.1326C30.3568 10.6226 30.6601 11.0893 30.9144 11.7426C31.1061 12.2355 31.3344 12.9764 31.3966 14.3414C31.4636 15.8172 31.4782 16.2605 31.4782 19.9968C31.4782 23.733 31.4636 24.1764 31.3966 25.6522C31.3341 27.0172 31.1061 27.758 30.9144 28.251C30.6607 28.9043 30.3568 29.3695 29.8667 29.8592C29.3767 30.3492 28.9115 30.6525 28.2579 30.9063C27.765 31.0988 27.0236 31.3263 25.6585 31.3887C24.1827 31.4558 23.7394 31.4704 20.0013 31.4704C16.263 31.4704 15.8199 31.4558 14.3441 31.3887C12.9791 31.3257 12.2382 31.0976 11.7444 30.906C11.0911 30.6522 10.6244 30.3489 10.1344 29.8589C9.64441 29.3689 9.34108 28.9034 9.08674 28.2498C8.89511 27.7569 8.66674 27.016 8.60461 25.651C8.53753 24.1752 8.52411 23.7319 8.52411 19.9933C8.52411 16.2547 8.53753 15.8137 8.60461 14.3379C8.66703 12.9729 8.89511 12.232 9.08674 11.7385C9.34049 11.0852 9.64441 10.6185 10.1344 10.1285C10.6244 9.63854 11.0911 9.33521 11.7444 9.08087C12.2379 8.88837 12.9791 8.66088 14.3441 8.59817C15.6356 8.53983 16.1361 8.52233 18.7454 8.51942V8.52292ZM27.4745 10.8475C26.547 10.8475 25.7945 11.5991 25.7945 12.5269C25.7945 13.4544 26.547 14.2069 27.4745 14.2069C28.402 14.2069 29.1545 13.4544 29.1545 12.5269C29.1545 11.5994 28.402 10.8469 27.4745 10.8469V10.8475ZM20.0013 12.8104C16.0308 12.8104 12.8117 16.0295 12.8117 20C12.8117 23.9705 16.0308 27.1881 20.0013 27.1881C23.9718 27.1881 27.1898 23.9705 27.1898 20C27.1898 16.0295 23.9715 12.8104 20.001 12.8104H20.0013ZM20.0013 15.3333C22.5785 15.3333 24.668 17.4225 24.668 20C24.668 22.5772 22.5785 24.6667 20.0013 24.6667C17.4238 24.6667 15.3346 22.5772 15.3346 20C15.3346 17.4225 17.4238 15.3333 20.0013 15.3333Z" fill="white"/>
</svg>
