<svg width="128" height="31" viewBox="0 0 128 31" fill="none" xmlns="http://www.w3.org/2000/svg">
<g filter="url(#filter0_d)">
<path d="M24.5159 17.4742C22.6434 17.4742 21.1254 15.9659 21.1254 14.1054V0.253249C21.1254 0.113383 21.2395 0 21.3803 0H24.1525C24.3532 0 24.5159 0.161668 24.5159 0.361095V17.4742Z" fill="black"/>
<path fill-rule="evenodd" clip-rule="evenodd" d="M39.2709 17.1131C39.2709 17.3125 39.1082 17.4742 38.9075 17.4742H36.2682C36.0675 17.4742 35.9048 17.3125 35.9048 17.1131V16.1897C35.5877 16.6744 35.0755 17.0379 34.3925 17.3045C33.7339 17.5711 33.1241 17.6923 32.5875 17.6923C31.0508 17.6923 29.7093 17.1591 28.5385 16.0685C27.3677 14.9779 26.7822 13.5479 26.7822 11.803C26.7822 10.058 27.3677 8.65227 28.5385 7.56164C29.7093 6.47102 31.0508 5.91359 32.5875 5.91359C33.6608 5.91359 35.1243 6.32561 35.9048 7.41623V6.51705C35.9048 6.31762 36.0675 6.15595 36.2682 6.15595H38.9075C39.1082 6.15595 39.2709 6.31762 39.2709 6.51705V17.1131ZM31.1484 13.7418C31.7338 14.2508 32.3924 14.4932 33.1485 14.4932C34.6121 14.4932 35.9048 13.4268 35.9048 11.803C35.9048 10.1791 34.6121 9.11275 33.1485 9.11275C32.3924 9.11275 31.7338 9.37935 31.1484 9.8883C30.5874 10.3973 30.2947 11.0274 30.2947 11.803C30.2947 12.5785 30.5874 13.2329 31.1484 13.7418Z" fill="black"/>
<path d="M46.6911 13.1844C47.496 13.4025 47.8131 13.6691 47.8131 14.1538C47.8131 14.7113 47.2033 15.0748 46.4228 15.0991C45.6737 15.0991 45.0255 14.665 44.8128 14.1294C44.7409 13.9485 44.5847 13.7903 44.3891 13.7903H41.9397C41.7361 13.7903 41.5705 13.9569 41.5912 14.1582C41.6962 15.1791 42.1568 16.0213 43.0079 16.6502C43.9592 17.353 45.0812 17.6923 46.3252 17.6923C47.6424 17.6923 48.7888 17.3772 49.7645 16.7713C50.7646 16.1654 51.2524 15.2929 51.2524 14.1538C51.2524 13.4752 51.1548 12.8451 50.1548 11.8999C49.6669 11.4394 49.0083 11.0759 48.1546 10.8577L46.2277 10.3488C45.5935 10.1791 45.252 9.91254 45.2276 9.50053C45.2032 8.99157 45.6666 8.65227 46.4228 8.65227C47.1125 8.65227 47.5156 8.8737 47.6579 9.30378C47.719 9.48829 47.8703 9.64594 48.0658 9.64594H50.5406C50.744 9.64594 50.9094 9.47975 50.8911 9.27847C50.7916 8.17963 50.3347 7.35691 49.5206 6.81033C48.6181 6.20443 47.5204 5.88936 46.2277 5.88936C45.0324 5.88936 44.008 6.22866 43.1299 6.88303C42.2518 7.53741 41.8127 8.26449 41.7883 9.11275C41.7639 9.8156 41.8127 10.2034 42.1786 10.9789C42.5689 11.7302 43.6177 12.3846 45.2032 12.7966L46.6911 13.1844Z" fill="black"/>
<path d="M58.8851 14.1538C58.8851 13.6691 58.568 13.4025 57.7631 13.1844L56.2752 12.7966C54.6897 12.3846 53.6408 11.7302 53.2506 10.9789C52.8847 10.2034 52.8359 9.8156 52.8603 9.11275C52.8847 8.26449 53.3237 7.53741 54.2019 6.88303C55.08 6.22866 56.1044 5.88936 57.2996 5.88936C58.5924 5.88936 59.69 6.20443 60.5925 6.81033C61.4067 7.35691 61.8635 8.17963 61.9631 9.27847C61.9813 9.47975 61.8159 9.64594 61.6125 9.64594H59.1377C58.9423 9.64594 58.791 9.48829 58.7299 9.30378C58.5876 8.8737 58.1844 8.65227 57.4948 8.65227C56.7386 8.65227 56.2752 8.99157 56.2996 9.50053C56.324 9.91254 56.6654 10.1791 57.2996 10.3488L59.2266 10.8577C60.0803 11.0759 60.7389 11.4394 61.2267 11.8999C62.2268 12.8451 62.3244 13.4752 62.3244 14.1538C62.3244 15.2929 61.8365 16.1654 60.8365 16.7713C59.8608 17.3772 58.7144 17.6923 57.3972 17.6923C56.1532 17.6923 55.0312 17.353 54.0799 16.6502C53.2288 16.0213 52.7682 15.1791 52.6631 14.1582C52.6424 13.9569 52.8081 13.7903 53.0117 13.7903H55.461C55.6567 13.7903 55.8129 13.9485 55.8847 14.1294C56.0975 14.665 56.7457 15.0991 57.4948 15.0991C58.2753 15.0748 58.8851 14.7113 58.8851 14.1538Z" fill="black"/>
<path d="M69.992 5.91359C68.309 5.91359 66.8455 6.47102 65.6259 7.56164C64.4063 8.65227 63.7965 10.058 63.7965 11.7787C63.7965 13.4995 64.4063 14.9294 65.6259 16.0443C66.8455 17.1591 68.309 17.7165 69.992 17.7165C71.909 17.7165 73.6339 16.9316 74.727 15.58C74.8522 15.4252 74.8119 15.2003 74.6489 15.0856L72.497 13.5719C72.3281 13.4531 72.0957 13.5005 71.961 13.6564C71.4833 14.2092 70.827 14.4932 69.992 14.4932C69.2359 14.4932 68.5773 14.2508 68.0163 13.7418C67.4553 13.2329 67.1626 12.5785 67.1626 11.7787C67.1626 11.0032 67.4553 10.373 68.0163 9.8883C68.5773 9.37935 69.2359 9.13699 69.992 9.13699C70.8261 9.13699 71.482 9.42039 71.9595 9.97206C72.095 10.1285 72.3287 10.1754 72.4975 10.0552L74.6487 8.52298C74.8117 8.40694 74.8501 8.18082 74.7231 8.02676C73.61 6.67756 71.8865 5.91359 69.992 5.91359Z" fill="black"/>
<path fill-rule="evenodd" clip-rule="evenodd" d="M88.7625 17.0889C88.7625 17.2883 88.5998 17.4499 88.3991 17.4499H85.7599C85.5592 17.4499 85.3964 17.2883 85.3964 17.0889V16.1654C85.0793 16.6502 84.5671 17.0137 83.8841 17.2803C83.2256 17.5469 82.6158 17.6681 82.0791 17.6681C80.5425 17.6681 79.2009 17.1349 78.0301 16.0443C76.8593 14.9536 76.2739 13.5237 76.2739 11.7787C76.2739 10.0337 76.8593 8.62803 78.0301 7.53741C79.2009 6.44679 80.5425 5.88936 82.0791 5.88936C83.1524 5.88936 84.6159 6.30137 85.3964 7.39199V6.49281C85.3964 6.29339 85.5592 6.13172 85.7599 6.13172H88.3991C88.5998 6.13172 88.7625 6.29339 88.7625 6.49281V17.0889ZM80.64 13.7176C81.2254 14.2266 81.884 14.4689 82.6401 14.4689C84.1037 14.4689 85.3964 13.4025 85.3964 11.7787C85.3964 10.1549 84.1037 9.08851 82.6401 9.08851C81.884 9.08851 81.2254 9.35511 80.64 9.86407C80.079 10.373 79.7863 11.0032 79.7863 11.7787C79.7863 12.5543 80.079 13.2086 80.64 13.7176Z" fill="black"/>
<path d="M103.711 9.18546C104.784 9.18546 105.589 10.0095 105.589 11.4394V17.1131C105.589 17.3125 105.752 17.4742 105.952 17.4742H108.592C108.792 17.4742 108.955 17.3125 108.955 17.1131V11.0516C108.955 7.68282 107.321 5.91359 104.565 5.91359C103.126 5.91359 101.979 6.5922 101.15 7.92518C100.515 6.5922 99.296 5.93783 97.491 5.93783C96.2226 5.93783 95.0274 6.64068 94.5151 7.80401V6.51705C94.5151 6.31762 94.3524 6.15595 94.1517 6.15595H91.4881C91.2874 6.15595 91.1247 6.31762 91.1247 6.51705V17.1131C91.1247 17.3125 91.2874 17.4742 91.4881 17.4742H94.1517C94.3524 17.4742 94.5151 17.3125 94.5151 17.1131V11.4879C94.5151 9.86407 95.3445 9.18546 96.4909 9.18546C97.5397 9.18546 98.3447 10.0095 98.3691 11.3667V17.1131C98.3691 17.3125 98.5318 17.4742 98.7325 17.4742H101.396C101.597 17.4742 101.759 17.3125 101.759 17.1131V11.4879C101.759 9.93678 102.54 9.18546 103.711 9.18546Z" fill="black"/>
<path fill-rule="evenodd" clip-rule="evenodd" d="M114.524 23C112.688 23 111.201 21.5218 111.201 19.6983V6.34798C111.201 6.22854 111.298 6.13172 111.418 6.13172H114.203C114.404 6.13172 114.567 6.29339 114.567 6.49281V7.53741C115.128 6.49526 116.445 5.88936 117.908 5.88936C119.421 5.88936 120.714 6.44679 121.787 7.53741C122.884 8.62803 123.421 10.0337 123.421 11.7545C123.421 13.5237 122.884 14.9536 121.787 16.0443C120.714 17.1349 119.421 17.6923 117.908 17.6923C116.445 17.6923 115.128 17.0622 114.567 16.0685V22.9571C114.567 22.9808 114.547 23 114.524 23ZM117.274 9.08851C115.811 9.08851 114.64 10.2518 114.64 11.8272C114.64 13.4752 115.811 14.5174 117.274 14.5174C118.738 14.5174 119.909 13.4025 119.909 11.8272C119.909 10.2034 118.738 9.08851 117.274 9.08851Z" fill="black"/>
<path d="M16.4834 12.4269C16.6082 12.2693 16.835 12.2269 17.0007 12.3412L19.1228 13.8065C19.2845 13.9181 19.328 14.1381 19.2123 14.2965C17.7846 16.2515 15.4427 17.4569 12.7452 17.4569C10.4918 17.4569 8.60633 16.6802 7.06576 15.1037C5.54819 13.5273 4.7894 11.6311 4.7894 9.39208C4.7894 7.13027 5.54819 5.234 7.06576 3.65758C8.60633 2.08117 10.4918 1.30438 12.7452 1.30438C15.37 1.30438 17.7034 2.48283 19.132 4.34805C19.2534 4.50647 19.2108 4.73141 19.0458 4.84436L16.9085 6.30772C16.7428 6.42119 16.5167 6.37815 16.3931 6.22031C15.4729 5.04491 14.2569 4.45722 12.7452 4.45722C11.4345 4.45722 10.3538 4.93699 9.48009 5.89655C8.60633 6.83326 8.16945 7.99844 8.16945 9.39208C8.16945 10.7629 8.60633 11.9281 9.48009 12.8876C10.3538 13.8243 11.4345 14.3041 12.7452 14.3041C14.2519 14.3041 15.5823 13.5646 16.4834 12.4269Z" fill="black"/>
</g>
<defs>
<filter id="filter0_d" x="0" y="0" width="128" height="31" filterUnits="userSpaceOnUse" color-interpolation-filters="sRGB">
<feFlood flood-opacity="0" result="BackgroundImageFix"/>
<feColorMatrix in="SourceAlpha" type="matrix" values="0 0 0 0 0 0 0 0 0 0 0 0 0 0 0 0 0 0 127 0" result="hardAlpha"/>
<feOffset dy="4"/>
<feGaussianBlur stdDeviation="2"/>
<feComposite in2="hardAlpha" operator="out"/>
<feColorMatrix type="matrix" values="0 0 0 0 0 0 0 0 0 0 0 0 0 0 0 0 0 0 0.25 0"/>
<feBlend mode="normal" in2="BackgroundImageFix" result="effect1_dropShadow"/>
<feBlend mode="normal" in="SourceGraphic" in2="effect1_dropShadow" result="shape"/>
</filter>
</defs>
</svg>
