<svg width="40" height="40" viewBox="0 0 40 40" fill="none" xmlns="http://www.w3.org/2000/svg">
<path d="M14.8058 31.7558C25.3725 31.7558 31.1507 23.0018 31.1507 15.4109C31.1507 15.1623 31.1456 14.9148 31.1345 14.6684C32.2561 13.8575 33.2311 12.8456 34 11.6936C32.9707 12.1511 31.863 12.4592 30.701 12.598C31.8871 11.8868 32.7977 10.7618 33.2272 9.42056C32.1173 10.0786 30.888 10.5568 29.5793 10.815C28.531 9.69832 27.0386 9 25.386 9C22.2136 9 19.6409 11.5727 19.6409 14.744C19.6409 15.1948 19.6913 15.6333 19.7899 16.0538C15.0153 15.8136 10.7816 13.5276 7.94855 10.0517C7.45518 10.9007 7.1707 11.8868 7.1707 12.9391C7.1707 14.9321 8.18487 16.6917 9.72712 17.721C8.78463 17.6918 7.89927 17.4331 7.12534 17.0025C7.12449 17.0266 7.12449 17.0501 7.12449 17.0758C7.12449 19.8579 9.10467 22.1808 11.7333 22.7073C11.2506 22.8389 10.7427 22.9094 10.2185 22.9094C9.84892 22.9094 9.48883 22.873 9.13883 22.8058C9.8702 25.0884 11.9909 26.7494 14.5054 26.7959C12.5392 28.337 10.0623 29.2548 7.37034 29.2548C6.90721 29.2548 6.44968 29.2285 6 29.1753C8.54243 30.8049 11.5614 31.7558 14.8061 31.7558" fill="white"/>
</svg>
