<svg width="40" height="40" viewBox="0 0 40 40" fill="none" xmlns="http://www.w3.org/2000/svg">
<path fill-rule="evenodd" clip-rule="evenodd" d="M34.2553 10.7293C34.7522 11.2302 35.1103 11.8535 35.2938 12.5372C36.3507 16.8252 36.1065 23.5975 35.3143 28.0511C35.1308 28.7348 34.7727 29.3581 34.2758 29.8589C33.7789 30.3597 33.1605 30.7206 32.4822 30.9056C29.9989 31.5882 20.0043 31.5882 20.0043 31.5882C20.0043 31.5882 10.0097 31.5882 7.52648 30.9056C6.84816 30.7206 6.22975 30.3597 5.73285 29.8589C5.23595 29.3581 4.87789 28.7348 4.69434 28.0511C3.63126 23.7816 3.92268 17.0052 4.67382 12.5579C4.85737 11.8742 5.21542 11.2509 5.71233 10.75C6.20923 10.2492 6.82763 9.8883 7.50596 9.7033C9.98922 9.02069 19.9838 9 19.9838 9C19.9838 9 29.9784 9 32.4617 9.68261C33.14 9.86762 33.7584 10.2285 34.2553 10.7293ZM24.7648 20.2943L17.2354 25.0001V15.5884L24.7648 20.2943Z" fill="white"/>
</svg>
